<?xml version="1.0" encoding="UTF-8" standalone="no"?>
<!-- Created with Inkscape (http://www.inkscape.org/) -->

<svg
   width="162.93941mm"
   height="81.168671mm"
   version="1.1"
   viewBox="0 0 162.93941 81.168671"
   xml:space="preserve"
   id="svg1"
   sodipodi:docname="Ibidem.svg"
   inkscape:version="1.3.2 (091e20e, 2023-11-25, custom)"
   xmlns:inkscape="http://www.inkscape.org/namespaces/inkscape"
   xmlns:sodipodi="http://sodipodi.sourceforge.net/DTD/sodipodi-0.dtd"
   xmlns="http://www.w3.org/2000/svg"
   xmlns:svg="http://www.w3.org/2000/svg"><defs
     id="defs1" /><sodipodi:namedview
     id="namedview1"
     pagecolor="#ffffff"
     bordercolor="#000000"
     borderopacity="0.25"
     inkscape:showpageshadow="2"
     inkscape:pageopacity="0.0"
     inkscape:pagecheckerboard="0"
     inkscape:deskcolor="#d1d1d1"
     inkscape:document-units="mm"
     inkscape:zoom="0.73139029"
     inkscape:cx="301.48062"
     inkscape:cy="223.54686"
     inkscape:window-width="1920"
     inkscape:window-height="1017"
     inkscape:window-x="-8"
     inkscape:window-y="-8"
     inkscape:window-maximized="1"
     inkscape:current-layer="svg1" /><path
     d="m 1.947315,80.894419 c -0.19814,-0.19814 -0.4823,-0.36026 -0.63147,-0.36026 -0.14917,0 -0.32356001,-0.0847 -0.38754001,-0.18821 -0.19312,-0.31247 -0.46753,-0.21116 -0.33854,0.12498 0.08267,0.21544 0.04906,0.26924 -0.10767,0.17238 -0.12532,-0.0774 -0.18015,-0.29113 -0.12184,-0.47484 0.05831,-0.18371 -0.02116,-0.43957 -0.1766,-0.56857 -0.22326,-0.18529 -0.23814,-0.31934 -0.07088,-0.63827 0.11646,-0.22204 0.32642,-0.47145 0.46658,-0.55423 0.14016,-0.0828 0.25484,-0.3551 0.25484,-0.60515 0,-0.25005 0.24069001,-0.73284 0.53486001,-1.0729 0.82358,-0.95197 0.89376,-1.1762 0.78264,-2.5004 -0.05692,-0.67835 -0.02433,-1.3748 0.07244,-1.5477 0.11787,-0.21062 0.10439,-0.33821 -0.04086,-0.38663 -0.16315,-0.0544 -0.16255,-0.17328 0.0024,-0.48056 0.24692,-0.4599 0.29398,-0.82977 0.41115,-3.2315 0.04545,-0.93166 0.2179,-2.3292 0.38323,-3.1055 0.16533,-0.77638 0.30066,-1.7334 0.30075,-2.1268 8.4e-5,-0.39333 0.11635,-0.94386 0.25836,-1.2234 0.14201,-0.27954 0.29802,-1.1435 0.34668,-1.9198 0.05793,-0.92429 0.22657,-1.681 0.48851,-2.192 0.40658,-0.79312 0.49041,-1.5079 0.69212,-5.9012 0.0499,-1.0869 0.26355,-2.8232 0.47477,-3.8584 0.21122,-1.0352 0.43376,-2.3462 0.49454,-2.9134 0.06078,-0.56718 0.20113,-1.2448 0.31189,-1.5057 0.31865,-0.75073 0.35415,-1.0792 0.39714,-3.6741 0.04029,-2.4315 0.42278,-6.6103 0.63679,-6.957 0.06154,-0.0997 0.17556,-0.90433 0.25337,-1.788 0.07781,-0.88371 0.23395,-2.0302 0.34698,-2.5478 0.226,-1.0349 0.57367,-9.4856 0.40265,-9.7872 -0.0587,-0.10351 -0.10881,-0.86578 -0.11135,-1.6939 -0.0037,-1.2109 -0.0599,-1.5057 -0.28694,-1.5057 -0.15528,0 -0.33709,-0.0755 -0.40402,-0.16784 -0.06694,-0.0923 -0.37645,0.0136 -0.6878,0.23527 -0.31136,0.22171 -0.66311,0.4031 -0.78166,0.4031 -0.11855,0 -0.46064,0.12674 -0.76018,0.28164 -0.35026,0.18112 -0.58665,0.21361 -0.66241,0.091 -0.06479,-0.10482 -0.18764,-0.14742 -0.27301,-0.0947 -0.28603,0.17677 -1.4625,-0.44632 -1.9608,-1.0385 -1.0673,-1.2684 -0.85748,-2.0316 1.2675,-4.6106 0.2954,-0.35851 0.61374,-0.65184 0.70743,-0.65184 0.09369,0 0.52111,-0.25409 0.94981,-0.5646395 0.4287,-0.31055 0.88675,-0.56464 1.0179,-0.56464 0.13112,0 0.26663,-0.06352 0.30114,-0.14116 0.06631,-0.14919 2.3362,-1.741 2.4827,-1.741 0.04711,0 0.52502,-0.42348 1.062,-0.94107 0.53698,-0.51759 1.047,-0.94107 1.1333,-0.94107 0.08629,0 0.31979,-0.20708 0.51887,-0.46017 0.19908,-0.2531 0.69224,-0.60919 1.0959,-0.79131 0.40366,-0.18212 0.99117,-0.56708 1.3056,-0.85544 0.60301,-0.55306 1.9233,-0.8631 2.7702,-0.65054 0.2694,0.06762 0.91794,0.72264 1.6093,1.6254 1.3941,1.8204 1.7198,2.4205 1.758,3.2387 0.05477,1.1733 -0.69533,7.3074995 -0.99673,8.1509995 -0.35771,1.0011 -0.5586,2.0419 -0.63771,3.3038 -0.04253,0.67841 -0.12807,1.6524 -0.19009,2.1645 -0.06202,0.51205 -0.13298,1.5274 -0.15768,2.2562 -0.0247,0.72888 -0.09893,1.4126 -0.16496,1.5195 -0.2812,0.45498 -0.57894,2.82 -0.70817,5.625 -0.07631,1.6563 -0.23043,3.3502 -0.3425,3.7643 -0.11207,0.41407 -0.29976,1.3881 -0.41709,2.1645 -0.11734,0.77638 -0.32586,2.0468 -0.4634,2.8232 -0.13754,0.77639 -0.29215,2.3856 -0.34359,3.5761 -0.05144,1.1905 -0.22131,2.7997 -0.37748,3.5761 -0.15617,0.77639 -0.33341,1.9967 -0.39385,2.7118 -0.06045,0.7151 -0.2357,1.8426 -0.38944,2.5055 -0.15374,0.66293 -0.27954,1.6339 -0.27954,2.1576 0,0.5237 -0.12099,1.8101 -0.26886,2.8586 -0.14788,1.0485 -0.32473,2.4145 -0.393,3.0356 -0.06828,0.62111 -0.23951,1.6375 -0.38051,2.2586 -0.141,0.62111 -0.30393,1.7645 -0.36205,2.5409 -0.05812,0.77638 -0.15362,1.804 -0.21221,2.2835 -0.32643,2.6716 -0.04774,5.5923 0.60797,6.3715 0.24421,0.29024 0.44402,0.61634 0.44402,0.72469 0,0.10834 0.09377,0.25494 0.20838,0.32577 0.14022,0.0867 0.16686,-0.002 0.08142,-0.27121 -0.26087,-0.82194 0.40778,-0.33956 1.0109,0.72929 0.23737,0.42067 0.23471,0.44509 -0.02507,0.23046 -0.23855,-0.19709 -0.30996,-0.18955 -0.39885,0.0421 -0.05955,0.15518 0.0029,0.34791 0.13876,0.42828 0.13586,0.0804 0.35481,0.35118 0.48655,0.60178 0.20525,0.39045 0.19293,0.4897 -0.08611,0.69374 -0.21677,0.15851 -0.46994,0.18323 -0.75734,0.074 -0.42677,-0.16226 -0.65863,-0.0849 -0.65863,0.21963 0,0.0863 0.13281,0.15684 0.29514,0.15684 0.24636,0 0.23074,0.0905 -0.09455,0.54727 -0.40055,0.56252 -1.6759,1.075 -3.0238,1.2151 -0.36231,0.0377 -0.89718,0.16471 -1.1886,0.28234 -0.29142,0.11763 -0.73186,0.21387 -0.97877,0.21387 -0.24691,0 -0.52325,0.1328 -0.61409,0.29512 -0.11272,0.20142 -0.83351,0.40749 -2.2701,0.64902 -1.1577,0.19464 -2.1987,0.41179 -2.3132,0.48256 -0.11451,0.0708 -0.50192,0.19491 -0.86092,0.27588 -0.52186,0.1177 -0.72495,0.075 -1.013,-0.21304 z m 16.109,-58.895 c 0.06398,-0.10352 0.02663,-0.18822 -0.083,-0.18822 -0.10963,0 -0.19932,0.0847 -0.19932,0.18822 0,0.10352 0.03735,0.18821 0.083,0.18821 0.04565,0 0.13534,-0.0847 0.19932,-0.18821 z m 129.489995,57.505 0.56465,-0.49339 -0.60235,0.29097 c -0.69786,0.3371 -0.99748,0.36796 -0.99748,0.10275 0,-0.10352 0.12705,-0.18822 0.28232,-0.18822 0.15528,0 0.28233,-0.0847 0.28233,-0.18821 0,-0.10352 0.0881,-0.18822 0.19583,-0.18822 0.25938,0 1.3099,-0.78188 1.3099,-0.97494 0,-0.1624 -1.445,0.35051 -1.8351,0.65135 -0.15242,0.11757 -0.23527,0.11506 -0.23527,-0.007 0,-0.24841 1.6146,-1.568 1.7514,-1.4313 0.0582,0.0582 0.20513,0.0443 0.32658,-0.0307 0.16833,-0.10404 0.16854,-0.16881 8.5e-4,-0.27244 -0.14516,-0.0897 0.01,-0.32177 0.45603,-0.68228 0.37181,-0.30047 1.1875,-1.0333 1.8126,-1.6286 0.6251,-0.5953 1.2155,-1.0822 1.3119,-1.0822 0.0965,0 0.17537,-0.0788 0.17537,-0.17517 0,-0.33806 0.85044,-1.5062 1.1791,-1.6195 0.18266,-0.063 0.29129,-0.18059 0.2414,-0.26132 -0.0839,-0.13571 1.0486,-2.4862 1.4193,-2.9459 0.0898,-0.11133 0.1519,-0.74655 0.13804,-1.4116 -0.0138,-0.66505 0.0353,-1.7451 0.10933,-2.4 0.0905,-0.80116 0.0642,-1.2756 -0.0803,-1.4497 -0.24406,-0.29407 -0.3878,-1.2179 -0.1895,-1.2179 0.18902,0 -0.348,-4.1934 -0.56478,-4.4102 -0.10021,-0.10022 -0.1822,-0.55197 -0.1822,-1.0039 0,-0.45193 -0.08,-0.97118 -0.17778,-1.1539 -0.0978,-0.1827 -0.22691,-0.94924 -0.28697,-1.7034 -0.0601,-0.75418 -0.22477,-1.5363 -0.36606,-1.738 -0.14128,-0.20171 -0.21389,-0.5311 -0.16135,-0.73199 0.0525,-0.2009 -0.0204,-0.50771 -0.16197,-0.68182 -0.22614,-0.27802 -0.21588,-0.30096 0.0842,-0.1884 0.26483,0.0993 0.31929,0.0543 0.24212,-0.20002 -0.0548,-0.18051 -0.19197,-0.91863 -0.30489,-1.6403 -0.20817,-1.3302 -0.35637,-1.702 -0.50858,-1.2759 -0.0462,0.12939 -0.19103,0.23527 -0.32181,0.23527 -0.16797,0 -0.23244,-0.34272 -0.21958,-1.1672 0.0162,-1.0393 -0.0294,-1.1913 -0.41612,-1.3873 -0.35138,-0.17808 -0.37834,-0.24159 -0.14116,-0.33261 0.3714,-0.14251 0.3764,-0.57882 0.0108,-0.94438 -0.15528,-0.15528 -0.28361,-0.56364 -0.28518,-0.90747 -0.003,-0.75869 -0.43828,-2.2784 -0.6738,-2.355 -0.0937,-0.0305 -0.37938,0.26161 -0.63492,0.64903 -0.25554,0.38743 -0.73175,0.97328 -1.0583,1.3019 -0.3265,0.32861 -0.65338,0.83679 -0.72639,1.1293 -0.073,0.29249 -0.24534,0.65885 -0.38296,0.81413 -0.57647,0.65045 -2.19,4.0496 -2.5463,5.3641 -0.0842,0.31055 -0.33663,1.0305 -0.56101,1.5998 -1.1751,2.9818 -1.3677,3.8023 -1.3918,5.9288 -0.0232,2.0545 -0.0297,2.0826 -0.84387,3.6702 -0.45124,0.8799 -1.0133,1.8116 -1.249,2.0704 -0.32124,0.35274 -0.4093,0.63545 -0.35178,1.1293 0.0653,0.56058 0.0492,0.59564 -0.10823,0.23527 -0.21142,-0.48403 -0.26788,-0.49958 -0.79327,-0.2184 -0.31896,0.17071 -0.47464,0.11748 -0.9287,-0.31753 -0.30002,-0.28744 -0.54549,-0.44784 -0.54549,-0.35645 0,0.0914 -0.25223,-0.23155 -0.5605,-0.71764 -0.30827,-0.4861 -0.64706,-0.88382 -0.75286,-0.88382 -0.1058,0 -0.19236,-0.1839 -0.19236,-0.40866 0,-0.22477 -0.14822,-0.57235 -0.32937,-0.77241 -0.2326,-0.25687 -0.32871,-0.67597 -0.32712,-1.4264 0.004,-2.0916 0.18922,-4.2647 0.37417,-4.4006 0.11729,-0.0862 0.10134,-0.13937 -0.0423,-0.14116 -0.24111,-0.003 -0.12223,-1.1334 0.13886,-1.3204 0.18468,-0.13225 0.35854,-1.8821 0.187,-1.8821 -0.0774,0 -0.2001,-0.67983 -0.27258,-1.5107 -0.0725,-0.8309 -0.1606,-1.699 -0.19582,-1.9292 -0.27991,-1.8292 -0.30151,-2.2385 -0.11198,-2.1214 0.11152,0.0689 0.20276,-0.004 0.20276,-0.16221 0,-0.18698 -0.10596,-0.24686 -0.30303,-0.17124 -0.26471,0.10158 -0.29117,-0.036 -0.20926,-1.0881 0.0516,-0.66243 0.0236,-1.3377 -0.0623,-1.5006 -0.14238,-0.27028 -0.4595,-1.7836 -0.94368,-4.5033 -0.27283,-1.5325 -0.27192,-1.5311 -0.81471,-1.2495 -0.77696,0.40309 -3.7552,3.5699 -4.1981,4.4639 -0.7114,1.4359 -0.98162,2.8808 -1.01,5.4009 -0.0148,1.3091 -0.0994,2.5711 -0.18819,2.8045 -0.0942,0.24779 -0.089,0.46911 0.0126,0.53188 0.10573,0.0653 0.10643,0.2709 0.002,0.52425 -0.0947,0.22922 -0.25883,1.1367 -0.36478,2.0166 -0.21861,1.8155 -0.0405,3.5902 0.41043,4.0906 0.16477,0.18282 0.35868,0.58649 0.43092,0.89705 0.0722,0.31055 0.26485,0.67083 0.42803,0.80061 0.23024,0.18313 0.24626,0.2864 0.0715,0.46113 -0.33915,0.33915 -0.29342,1.1574 0.0572,1.0229 0.15528,-0.0596 0.28232,-0.0311 0.28232,0.0633 0,0.22071 -0.76329,0.75762 -1.077,0.75762 -0.13225,0 -0.38867,0.1285 -0.56982,0.28556 -1.6344,1.4169 -2.4867,1.9025 -2.7993,1.5949 -0.21613,-0.21271 -2.5177,0.94118 -2.5177,1.2622 0,0.28944 -0.30411,0.32627 -0.47054,0.057 -0.064,-0.10352 -0.30993,-0.18822 -0.54658,-0.18822 -0.43402,0 -1.0532,-0.52077 -1.0532,-0.88579 0,-0.10857 -0.12704,-0.30284 -0.28232,-0.43171 -0.15528,-0.12886 -0.28232,-0.43567 -0.28232,-0.68179 0,-0.24612 -0.17837,-0.62586 -0.39638,-0.84387 -0.32112,-0.32113 -0.39366,-0.61593 -0.38208,-1.5528 0.0199,-1.6128 0.22459,-3.1822 0.45208,-3.4666 0.10549,-0.1319 0.13739,-0.29423 0.0709,-0.36074 -0.0665,-0.0665 -0.12223,-9.4e-4 -0.12381,0.14571 -0.002,0.2268 -0.0285,0.22612 -0.17447,-0.005 -0.10948,-0.17302 -0.0828,-0.44555 0.0736,-0.75285 0.20637,-0.40546 0.49439,-2.3717 0.57096,-3.8979 0.0112,-0.22262 0.10906,-0.51906 0.21754,-0.65875 0.10847,-0.13968 0.2144,-0.65568 0.23539,-1.1467 0.021,-0.49099 0.16042,-1.2956 0.30984,-1.788 0.35242,-1.1614 0.34567,-1.5541 -0.0267,-1.5541 -0.21534,0 -0.26257,-0.0949 -0.16396,-0.32937 0.0762,-0.18116 0.1752,-0.8799 0.22006,-1.5528 0.0449,-0.67287 0.18216,-1.3081 0.30512,-1.4116 0.30416,-0.25607 0.34445,-0.56606 0.44026,-3.3879 0.0479,-1.411 -0.01,-2.9973 -0.13595,-3.7474 -0.2099,-1.2463 -0.26914,-1.3497 -1.4203,-2.4785 -0.66072,-0.64783 -1.2013,-1.2314 -1.2013,-1.2967 0,-0.25953 0.55878,-1.1781 0.87069,-1.4314 0.20911,-0.16977 0.27885,-0.18204 0.18951,-0.0333 -0.24637,0.41009 0.1741,0.254 0.63373,-0.23526 0.24313,-0.2588 0.64084,-0.47054 0.88381,-0.47054 0.2883,0 0.51607,-0.16309 0.65568,-0.46949 0.11765,-0.25822 0.50181,-0.63935 0.85368,-0.84696 0.76315,-0.45027 0.93492,-0.47671 0.61826,-0.0952 -0.12887,0.15528 -0.17497,0.28232 -0.10244,0.28232 0.24278,0 2.9157,-1.3374 3.0244,-1.5132 0.10949,-0.17715 1.6369,-0.10524 1.9562,0.0921 0.0969,0.0599 0.27989,0.42532 0.40665,0.81207 0.12677,0.38675 0.33781,0.87257 0.46898,1.0796 0.33077,0.52207 0.37065,1.1896 0.1222,2.0452 -0.18956,0.65283 -0.11529,3.1307 0.0939,3.1307 0.1602,0 2.0293,-2.1365 2.0293,-2.3197 0,-0.10321 0.28854,-0.28481 0.64121,-0.40355 0.37559,-0.12646 0.70774,-0.39571 0.80179,-0.64995 0.11445,-0.30939 0.26626,-0.40642 0.52857,-0.33782 0.23625,0.0618 0.40372,-0.0148 0.46776,-0.21381 0.1396,-0.43391 1.1065,-1.5334 1.3485,-1.5334 0.25892,0 0.82339,-0.62305 0.82339,-0.90884 0,-0.29513 -0.51099,-0.28286 -0.6173,0.0148 -0.0462,0.1294 -0.15583,0.168 -0.2436,0.0858 -0.0878,-0.0822 0.0912,-0.34942 0.39762,-0.59379 0.5859,-0.46717 0.89574,-0.46871 0.71724,-0.004 -0.0792,0.20638 0.042,0.27629 0.47876,0.27629 0.32163,0 0.58478,-0.0768 0.58478,-0.17059 0,-0.0938 0.16803,-0.12666 0.37341,-0.073 0.50265,0.13145 1.3639,-0.0986 1.223,-0.32662 -0.0658,-0.10649 0.20113,-0.1827 0.63995,-0.1827 0.41407,0 0.8052,0.0847 0.86918,0.18822 0.064,0.10351 0.25954,0.18879 0.43459,0.1895 0.46269,0.002 1.1816,1.1646 1.3013,2.1046 0.0568,0.44629 0.17672,0.95451 0.26646,1.1294 0.0984,0.19166 0.0882,0.36428 -0.0256,0.43459 -0.1038,0.0641 -0.18873,0.20133 -0.18873,0.30485 0,0.10352 0.0847,0.13587 0.18822,0.0719 0.10352,-0.064 0.19509,-0.0478 0.2035,0.0359 0.008,0.0837 0.0499,0.36401 0.0921,0.6228 0.0423,0.2588 0.15609,1.2752 0.25296,2.2586 0.0969,0.98342 0.22584,2.2539 0.28661,2.8232 0.0608,0.56935 0.11579,1.6492 0.12227,2.3997 0.006,0.7505 0.0695,1.3646 0.13997,1.3646 0.0705,0 0.23663,-0.24502 0.36919,-0.54448 0.13256,-0.29947 0.38615,-0.58345 0.56354,-0.63108 0.18238,-0.049 0.42801,-0.43493 0.56531,-0.88827 0.22668,-0.74847 0.66733,-1.4394 2.1048,-3.3003 0.31986,-0.41407 0.77398,-1.007 1.0092,-1.3175 0.23518,-0.31056 0.83234,-1.3693 1.327,-2.3527 0.98025,-1.9487 1.9028,-2.9463 2.2126,-2.3927 0.0964,0.17219 0.29682,0.25864 0.45709,0.19714 0.25098,-0.0963 0.25217,-0.14654 0.01,-0.41567 -0.24436,-0.27146 -0.22397,-0.36591 0.18009,-0.8342 0.25061,-0.29045 0.45847,-0.45984 0.46191,-0.37643 0.003,0.0834 0.15517,-0.0265 0.33717,-0.24419 0.34883,-0.41729 1.1623,-0.92343 1.1623,-0.72318 0,0.0647 -0.16204,0.25824 -0.36008,0.43011 -0.44027,0.38209 -0.70005,1.1594 -0.38747,1.1594 0.1204,0 0.45328,-0.16689 0.73974,-0.37087 0.28646,-0.20397 0.56754,-0.32416 0.62463,-0.26707 0.0571,0.0571 0.27789,0.0106 0.49067,-0.10325 0.33804,-0.18092 0.35884,-0.26861 0.16473,-0.69462 -0.19111,-0.41944 -0.17059,-0.5253 0.14683,-0.7576 0.3281,-0.24011 0.38001,-0.23261 0.4685,0.0677 0.0547,0.18574 0.25704,0.67649 0.44957,1.0906 0.19253,0.41411 0.44297,0.9646 0.55653,1.2234 0.11356,0.25879 0.36134,0.68925 0.55062,0.95657 0.19702,0.27825 0.31888,0.72081 0.28503,1.0352 -0.0748,0.69483 0.43789,0.76372 0.59918,0.0805 0.24134,-1.0223 0.60583,0.73969 0.59335,2.8684 -0.005,0.80226 0.0717,1.4587 0.16981,1.4587 0.0981,0 0.17836,-0.21674 0.17836,-0.48165 0,-0.2649 0.0656,-0.44111 0.14573,-0.39158 0.1679,0.10378 0.12144,3.4599 -0.0542,3.9177 -0.0644,0.16792 -0.0267,0.36122 0.0839,0.42956 0.11058,0.0683 0.20105,0.20895 0.20105,0.31247 0,0.10352 -0.0788,0.13949 -0.17521,0.0799 -0.0964,-0.0596 -0.22519,-0.0274 -0.28628,0.0714 -0.0611,0.0988 0.0206,0.25344 0.18165,0.34353 0.23005,0.12874 0.30841,0.61367 0.36603,2.2649 0.0403,1.1556 0.13793,2.2056 0.21692,2.3334 0.079,0.12781 0.1624,1.0407 0.18535,2.0286 0.0486,2.0907 0.11085,2.6404 0.33959,2.9981 0.0917,0.14344 0.16033,0.73632 0.15244,1.3175 -0.008,0.58119 0.23848,3.3859 0.5475,6.2326 0.30903,2.8468 0.57518,5.6841 0.59145,6.3052 0.0392,1.4972 -0.22877,3.7346 -0.46496,3.8818 -0.10369,0.0646 -0.26403,0.53045 -0.35631,1.0352 -0.0986,0.53912 -0.32768,1.0502 -0.5554,1.2388 -0.21319,0.17661 -0.40422,0.53695 -0.42449,0.80075 -0.0203,0.2638 -0.39666,0.89733 -0.83641,1.4078 -0.43975,0.51047 -0.87956,1.1387 -0.97735,1.3959 -0.12197,0.32082 -0.28444,0.44051 -0.5175,0.38124 -0.33242,-0.0846 -0.82666,0.28891 -3.2052,2.4219 -0.74206,0.66545 -0.9039,0.89402 -0.63305,0.89402 0.20014,0 1.0661,-0.67358 1.9244,-1.4968 0.85827,-0.82326 1.5976,-1.4598 1.6429,-1.4144 0.0453,0.0453 -0.39626,0.53505 -0.98131,1.0883 -0.58505,0.55323 -1.0637,1.105 -1.0637,1.2262 0,0.12118 -0.0859,0.22034 -0.19088,0.22034 -0.10498,0 -0.6588,0.38113 -1.2307,0.84696 -0.57192,0.46583 -1.1956,0.84697 -1.3859,0.84697 -0.1903,0 -0.45117,0.12665 -0.57964,0.28145 -0.12848,0.1548 -0.5835,0.38137 -1.0112,0.50349 -0.42767,0.12212 -0.86228,0.28306 -0.96579,0.35765 -0.10352,0.0746 -0.51575,0.27132 -0.91606,0.43718 l -0.72784,0.30158 0.51729,-0.67821 c 0.45604,-0.59789 0.46979,-0.65278 0.11615,-0.46351 -0.22063,0.11807 -0.40115,0.2964 -0.40115,0.39628 0,0.0999 -0.17221,0.18159 -0.38269,0.18159 -0.21048,0 -0.82452,0.21813 -1.3646,0.48474 l -0.98187,0.48474 z m 5.275,-1.7572 c -0.058,-0.058 -0.20982,-1.2e-4 -0.3375,0.12851 -0.1845,0.18588 -0.16288,0.2075 0.10536,0.10536 0.18563,-0.0707 0.29008,-0.17592 0.23214,-0.23387 z m -3.4834,-1.264 c 0.19891,-0.23967 0.18726,-0.26721 -0.0711,-0.16808 -0.16992,0.0652 -0.30894,0.19419 -0.30894,0.28663 0,0.24203 0.10895,0.20804 0.38,-0.11855 z m -16.031,-38.966 c 0.27251,-0.5981 -0.0268,-0.59543 -0.41936,0.004 -0.37106,0.5663 -0.38098,0.68311 -0.0471,0.555 0.14126,-0.0542 0.35119,-0.30564 0.46651,-0.55874 z m 27.321,-1.8607 c 0,-0.0456 -0.0847,-0.13534 -0.18821,-0.19932 -0.10352,-0.064 -0.18822,-0.0266 -0.18822,0.083 0,0.10963 0.0847,0.19932 0.18822,0.19932 0.10352,0 0.18821,-0.0374 0.18821,-0.083 z m -0.94107,-1.8932 c 0,-0.15528 -0.0847,-0.28232 -0.18821,-0.28232 -0.10352,0 -0.18822,0.12704 -0.18822,0.28232 0,0.15528 0.0847,0.28232 0.18822,0.28232 0.10351,0 0.18821,-0.12704 0.18821,-0.28232 z m -0.0775,-1.3636 c -0.2056,-0.20561 -0.34659,0.12137 -0.19897,0.46146 0.13997,0.32248 0.15011,0.32219 0.2281,-0.007 0.0449,-0.18926 0.0318,-0.39394 -0.0291,-0.45485 z m 0.26569,-0.41333 c 0,-0.0974 -0.0847,-0.22945 -0.18822,-0.29343 -0.10352,-0.064 -0.18821,0.0157 -0.18821,0.17711 0,0.16138 0.0847,0.29343 0.18821,0.29343 0.10352,0 0.18822,-0.0797 0.18822,-0.17711 z m -3.1651,-5.1337 c -0.13506,-0.13505 -0.22272,-0.14617 -0.22272,-0.0282 0,0.25123 0.22258,0.47381 0.34819,0.3482 0.0535,-0.0535 -0.003,-0.19747 -0.12547,-0.31997 z m -139.649995,52.613 c 0.43544,-0.11493 0.57586,-1.4204 0.49828,-4.6322 -0.04944,-2.0469 -0.12233,-2.635 -0.34501,-2.7837 -0.19465,-0.12995 0.37372,-0.17154 1.8303,-0.13393 1.9083,0.0493 2.1541,0.096 2.5409,0.48327 0.63617,0.63687 0.5981,2.0129 -0.08028,2.9023 l -0.50852,0.6667 0.92278,1.4995 c 0.9894,1.6077 1.2031,1.8455 1.7882,1.9893 0.20704,0.0509 -0.10408,0.10235 -0.69136,0.11436 -1.3417,0.0274 -1.9089,-0.40066 -2.6866,-2.0278 -0.43907,-0.91865 -0.63736,-1.15 -0.98558,-1.15 -0.41299,0 -0.43578,0.0668 -0.43305,1.2704 0.003,1.3269 0.09286,1.6135 0.56176,1.792 0.15528,0.0591 -0.39525,0.10434 -1.2234,0.1005 -0.82814,-0.004 -1.3629,-0.0447 -1.1884,-0.0907 z m 3.3039,-3.8721 c 0.82316,-1.0451 0.159,-3.1526 -0.99351,-3.1526 -0.45507,0 -0.4632,0.0275 -0.4632,1.5685 0,0.86265 0.05646,1.6249 0.12548,1.6939 0.21399,0.21399 1.1361,0.13794 1.3312,-0.10979 z m 4.0015,3.8154 c 0.23442,-0.14808 0.28232,-0.77145 0.28232,-3.6737 0,-2.9019 -0.04793,-3.5257 -0.28232,-3.6743 -0.18829,-0.11936 0.42294,-0.17993 1.8351,-0.18185 l 2.1174,-0.003 v 0.69472 c 0,0.60595 -0.0304,0.65316 -0.23787,0.36943 -0.15421,-0.21089 -0.53484,-0.33939 -1.0822,-0.36535 l -0.84437,-0.04 -0.05604,1.2876 -0.05605,1.2876 1.1386,-0.0642 c 0.62624,-0.0353 1.1373,-0.0219 1.1357,0.0299 -0.0016,0.0517 -0.05116,0.27387 -0.11013,0.49359 -0.09763,0.36378 -0.17273,0.38286 -0.84007,0.21347 -1.1699,-0.29695 -1.3061,-0.15582 -1.3061,1.353 0,1.2037 0.04168,1.3464 0.47646,1.6313 0.62064,0.40666 1.5873,0.15564 1.9181,-0.49809 0.26349,-0.52071 0.3138,-0.2193 0.1228,0.73569 l -0.11763,0.58817 -2.188,-0.003 c -1.4521,-0.002 -2.093,-0.0629 -1.9057,-0.18122 z m 7.6227,-0.12864 c -1.4133,-0.74509 -2.1536,-1.9782 -2.1603,-3.5988 -0.0067,-1.6129 0.70678,-2.9062 1.9721,-3.5748 0.5849,-0.30906 3.3969,-0.42161 3.831,-0.15333 0.11857,0.0733 0.21227,0.53055 0.20822,1.0162 l -0.0074,0.88291 -0.26092,-0.59994 c -0.3105,-0.71392 -1.3782,-1.1199 -2.4275,-0.92306 -1.0473,0.19648 -1.5168,1.0106 -1.5976,2.7706 -0.08093,1.762 0.36274,2.9544 1.3236,3.5571 0.81722,0.51266 2.1466,0.41413 2.6404,-0.19571 l 0.3368,-0.41594 v 0.54786 c 0,0.30131 -0.10164,0.64948 -0.22586,0.7737 -0.3396,0.33961 -2.9416,0.27737 -3.6325,-0.0869 z m 5.2108,0.18533 c 0.43544,-0.11493 0.57586,-1.4204 0.49828,-4.6322 -0.04944,-2.0469 -0.12233,-2.635 -0.34501,-2.7837 -0.19465,-0.12995 0.37372,-0.17154 1.8303,-0.13393 1.9083,0.0493 2.1541,0.096 2.5409,0.48327 0.63617,0.63687 0.5981,2.0129 -0.08028,2.9023 l -0.50852,0.6667 0.92278,1.4995 c 0.9894,1.6077 1.2031,1.8455 1.7882,1.9893 0.20704,0.0509 -0.10408,0.10235 -0.69136,0.11436 -1.3417,0.0274 -1.9089,-0.40066 -2.6866,-2.0278 -0.43907,-0.91865 -0.63736,-1.15 -0.98558,-1.15 -0.41299,0 -0.43578,0.0668 -0.43305,1.2704 0.003,1.3269 0.09286,1.6135 0.56176,1.792 0.15528,0.0591 -0.39525,0.10434 -1.2234,0.1005 -0.82814,-0.004 -1.3629,-0.0447 -1.1885,-0.0907 z m 3.3039,-3.8721 c 0.82316,-1.0451 0.159,-3.1526 -0.99351,-3.1526 -0.45507,0 -0.4632,0.0275 -0.4632,1.5685 0,0.86265 0.05646,1.6249 0.12548,1.6939 0.21399,0.21399 1.1361,0.13794 1.3312,-0.10979 z m 4.0015,3.8154 c 0.23442,-0.14808 0.28232,-0.77145 0.28232,-3.6737 0,-2.9019 -0.04793,-3.5257 -0.28232,-3.6743 -0.18829,-0.11936 0.42294,-0.17993 1.8351,-0.18185 l 2.1174,-0.003 v 0.69472 c 0,0.60595 -0.03039,0.65316 -0.23787,0.36943 -0.15421,-0.21089 -0.53484,-0.33939 -1.0822,-0.36535 l -0.84437,-0.04 -0.11208,2.5752 1.1386,-0.0642 c 0.62624,-0.0353 1.1373,-0.0219 1.1357,0.0299 -0.0016,0.0517 -0.05116,0.27387 -0.11013,0.49359 -0.09763,0.36378 -0.17273,0.38286 -0.84007,0.21347 -1.1699,-0.29695 -1.3061,-0.15582 -1.3061,1.353 0,1.2037 0.04168,1.3464 0.47646,1.6313 0.62064,0.40666 1.5873,0.15564 1.9181,-0.49809 0.26349,-0.52071 0.3138,-0.2193 0.1228,0.73569 l -0.11763,0.58817 -2.188,-0.003 c -1.4521,-0.002 -2.093,-0.0629 -1.9057,-0.18122 z m 5.1936,8.7e-4 c 0.3,-0.1213 0.71917,-1.0289 1.7547,-3.7994 0.74831,-2.002 1.4298,-3.7113 1.5145,-3.7983 0.08466,-0.087 0.505,0.75992 0.93409,1.8821 0.42909,1.1222 1.0825,2.8299 1.452,3.7948 0.47442,1.2389 0.7904,1.8022 1.0755,1.9173 0.28685,0.11575 0.02236,0.16622 -0.91382,0.17439 -1.315,0.0115 -1.3175,0.0105 -1.3356,-0.51366 -0.0099,-0.28883 -0.13769,-0.77565 -0.28389,-1.0818 -0.23819,-0.49877 -0.36896,-0.56258 -1.2578,-0.61372 -0.97605,-0.0562 -0.99642,-0.0464 -1.2689,0.60565 -0.36738,0.87926 -0.34966,1.3811 0.05247,1.4862 0.18116,0.0473 -0.22115,0.0905 -0.89402,0.096 -0.8449,0.007 -1.1014,-0.0394 -0.82924,-0.14947 z m 3.6379,-2.9694 c -0.02827,-0.63825 -0.69105,-2.2215 -0.80762,-1.9292 -0.27076,0.67893 -0.68351,1.9434 -0.68351,2.094 0,0.0905 0.33879,0.16456 0.75286,0.16456 0.59709,0 0.74984,-0.0682 0.73827,-0.32938 z m 5.7551,2.8398 c -1.4133,-0.74509 -2.1536,-1.9782 -2.1603,-3.5988 -0.0067,-1.6129 0.70678,-2.9062 1.9721,-3.5748 0.5849,-0.30906 3.3969,-0.42161 3.831,-0.15333 0.11857,0.0733 0.21227,0.53055 0.20822,1.0162 l -0.0074,0.88291 -0.26092,-0.59994 c -0.3105,-0.71392 -1.3782,-1.1199 -2.4275,-0.92306 -1.0473,0.19648 -1.5168,1.0106 -1.5976,2.7706 -0.08093,1.762 0.36274,2.9544 1.3236,3.5571 0.81722,0.51266 2.1466,0.41413 2.6404,-0.19571 l 0.3368,-0.41594 v 0.54786 c 0,0.30131 -0.10164,0.64948 -0.22586,0.7737 -0.3396,0.33961 -2.9416,0.27737 -3.6325,-0.0869 z m 5.2092,0.18566 c 0.42061,-0.11119 0.58394,-1.683 0.50094,-4.8208 -0.04985,-1.8845 -0.12496,-2.4456 -0.34599,-2.5851 -0.19482,-0.1229 0.09393,-0.179 0.93166,-0.18099 0.94421,-0.002 1.1638,0.0473 0.98813,0.22298 -0.25224,0.25224 -0.32686,6.6723 -0.08182,7.0392 0.07605,0.11387 0.26532,0.25541 0.4206,0.31451 0.15528,0.0591 -0.39525,0.10434 -1.2234,0.1005 -0.82814,-0.004 -1.3637,-0.0445 -1.1901,-0.0904 z m 5.5813,-0.25439 c -2.515,-1.3286 -2.4578,-5.7655 0.09128,-7.0837 0.77668,-0.40164 2.6854,-0.40623 3.4472,-0.008 1.6629,0.86862 2.3198,2.8177 1.6667,4.9455 -0.32964,1.074 -0.72002,1.5902 -1.6155,2.1361 -0.85134,0.51901 -2.6173,0.52415 -3.5898,0.0104 z m 2.5691,-0.18177 c 1.0264,-0.39025 1.5528,-2.8671 1.0184,-4.792 -0.28317,-1.02 -1.2748,-1.9851 -2.0396,-1.9851 -1.2528,0 -1.81,1.1761 -1.6723,3.5302 0.0942,1.6107 0.59471,2.6649 1.4738,3.104 0.7789,0.3891 0.62075,0.37057 1.2197,0.14285 z m 4.4507,0.25223 c 0.19158,-0.23067 0.28263,-1.2604 0.35242,-3.986 l 0.0941,-3.675 4.9827,5.2428 0.002,-2.1981 c 0.002,-1.7497 -0.0579,-2.2584 -0.29329,-2.4938 -0.26887,-0.26888 -0.21545,-0.29577 0.58769,-0.29577 0.68048,0 0.84073,0.054 0.69748,0.23527 -0.10229,0.1294 -0.24329,1.841 -0.31334,3.8036 -0.0701,1.9626 -0.17602,3.6142 -0.2355,3.6702 -0.0595,0.056 -1.2052,-1.0416 -2.546,-2.4391 l -2.4379,-2.5409 0.12742,2.2586 c 0.0973,1.7253 0.19781,2.3141 0.42551,2.4938 0.24846,0.1961 0.13157,0.23527 -0.702,0.23527 -0.90872,0 -0.97649,-0.0284 -0.74178,-0.31101 z m 10.998,0.044 c 0.33838,-0.24729 0.36534,-0.51863 0.36534,-3.6767 0,-2.8259 -0.0483,-3.4403 -0.28232,-3.5885 -0.19585,-0.12404 0.08,-0.17969 0.90064,-0.18169 1.1116,-0.003 1.1712,0.0191 0.98813,0.36118 -0.10716,0.20023 -0.19484,0.92015 -0.19484,1.5998 v 1.2358 h 3.0114 v -1.49 c 0,-1.0159 -0.0749,-1.5202 -0.23527,-1.585 -0.12939,-0.0522 0.31103,-0.10162 0.97872,-0.10979 0.94421,-0.0116 1.1638,0.0353 0.98813,0.211 -0.15924,0.15924 -0.22586,1.2436 -0.22586,3.6762 0,3.4023 0.006,3.4528 0.42348,3.6206 0.30634,0.12314 0.007,0.17194 -1.0822,0.17643 -1.1105,0.005 -1.4193,-0.0442 -1.1763,-0.18564 0.27487,-0.16009 0.32937,-0.47062 0.32937,-1.8764 v -1.6846 h -3.0114 v 1.5892 c 0,1.4288 0.0422,1.6187 0.41831,1.8822 0.39367,0.27574 0.33059,0.29299 -1.0712,0.29299 -1.3322,0 -1.4509,-0.0282 -1.1241,-0.26698 z m 8.5859,0.1399 c 0.42061,-0.11119 0.58394,-1.683 0.50094,-4.8208 -0.0498,-1.8845 -0.12496,-2.4456 -0.34599,-2.5851 -0.19483,-0.1229 0.0939,-0.179 0.93166,-0.18099 0.94421,-0.002 1.1638,0.0473 0.98812,0.22298 -0.25224,0.25224 -0.32686,6.6723 -0.0818,7.0392 0.076,0.11387 0.26532,0.25541 0.4206,0.31451 0.15528,0.0591 -0.39525,0.10434 -1.2234,0.1005 -0.82814,-0.004 -1.3637,-0.0445 -1.1901,-0.0904 z m 3.966295,0.002 c -0.15065,-0.0608 -0.22605,-0.44469 -0.20964,-1.0674 0.0141,-0.53485 0.062,-0.78477 0.10636,-0.55539 0.0955,0.49327 1.0779,1.371 1.5345,1.371 0.58399,0 1.1567,-0.55579 1.1567,-1.1225 0,-0.40913 -0.23464,-0.74716 -0.98813,-1.4236 -1.3331,-1.1967 -1.6442,-1.7126 -1.6456,-2.7291 -0.002,-1.5205 1.1113,-2.3919 2.7437,-2.1471 l 0.83111,0.12463 -0.014,1.7453 -0.25402,-0.58353 c -0.40923,-0.94006 -1.5788,-1.1549 -2.0846,-0.38295 -0.41212,0.62896 -0.1415,1.2042 1.0267,2.1822 1.1499,0.96277 1.5149,1.6017 1.5149,2.6521 0,0.63727 -0.11778,0.89881 -0.63993,1.421 -0.58719,0.5872 -0.73066,0.63871 -1.741,0.62507 -0.60558,-0.008 -1.2069,-0.0576 -1.3363,-0.10979 z m 6.3855,-0.002 c 0.41141,-0.10875 0.57454,-1.6456 0.49593,-4.6724 l -0.0587,-2.2586 -0.91898,0.0134 c -0.67452,0.01 -0.99354,0.10997 -1.1992,0.37643 -0.26072,0.33772 -0.2721,0.31874 -0.16325,-0.27218 0.0644,-0.34938 0.1169,-0.68816 0.11675,-0.75286 -1.4e-4,-0.0647 1.355,-0.0924 3.0114,-0.0616 l 3.0117,0.056 -0.0188,0.88504 c -0.0144,0.67699 -0.0495,0.77442 -0.14945,0.41449 -0.10084,-0.36306 -0.30897,-0.50835 -0.9112,-0.63609 -1.384,-0.29357 -1.3677,-0.33185 -1.3645,3.2181 0.002,1.7372 0.0651,3.2517 0.14116,3.3656 0.0761,0.11387 0.26532,0.25541 0.4206,0.31451 0.15528,0.0591 -0.39525,0.10434 -1.2234,0.1005 -0.82815,-0.004 -1.3637,-0.0445 -1.1901,-0.0904 z m 6.8988,-0.25439 c -2.515,-1.3286 -2.4578,-5.7655 0.0913,-7.0837 0.77668,-0.40164 2.6854,-0.40623 3.4472,-0.008 1.6629,0.86862 2.3198,2.8177 1.6667,4.9455 -0.32964,1.074 -0.72003,1.5902 -1.6155,2.1361 -0.85134,0.51901 -2.6173,0.52415 -3.5898,0.0104 z m 2.5691,-0.18177 c 1.0264,-0.39025 1.5528,-2.8671 1.0184,-4.792 -0.28317,-1.02 -1.2748,-1.9851 -2.0396,-1.9851 -1.2528,0 -1.81,1.1761 -1.6723,3.5302 0.0942,1.6107 0.59471,2.6649 1.4738,3.104 0.77889,0.3891 0.62074,0.37057 1.2197,0.14285 z m 4.2734,0.43583 c 0.43544,-0.11493 0.57586,-1.4204 0.49828,-4.6322 -0.0494,-2.0469 -0.12233,-2.635 -0.34501,-2.7837 -0.19465,-0.12995 0.37371,-0.17154 1.8303,-0.13393 1.9083,0.0493 2.1541,0.096 2.5409,0.48327 0.63628,0.63698 0.5981,2.0129 -0.0805,2.9026 l -0.50878,0.66704 0.85418,1.3887 c 1.1124,1.8085 1.3418,2.0474 1.9656,2.0474 0.49959,0 0.52554,-0.0472 0.6462,-1.1763 0.0691,-0.64699 0.097,-2.2595 0.062,-3.5833 -0.0498,-1.8845 -0.12496,-2.4456 -0.346,-2.5851 -0.19482,-0.1229 0.0939,-0.179 0.93166,-0.18099 0.94421,-0.002 1.1638,0.0473 0.98813,0.22298 -0.25224,0.25224 -0.32686,6.6723 -0.0818,7.0392 0.0761,0.11387 0.26533,0.25541 0.42061,0.31451 0.15527,0.0591 -0.79106,0.11416 -2.103,0.12233 -2.2514,0.014 -2.4153,-0.0104 -2.9199,-0.43495 -0.29402,-0.2474 -0.78192,-0.96732 -1.0842,-1.5998 -0.43907,-0.91865 -0.63735,-1.15 -0.98558,-1.15 -0.41299,0 -0.43578,0.0668 -0.43305,1.2704 0.003,1.3269 0.0929,1.6135 0.56176,1.792 0.15528,0.0591 -0.39525,0.10434 -1.2234,0.1005 -0.82814,-0.004 -1.363,-0.0447 -1.1884,-0.0907 z m 3.3039,-3.8721 c 0.82315,-1.0451 0.15899,-3.1526 -0.99352,-3.1526 -0.45507,0 -0.4632,0.0275 -0.4632,1.5685 0,0.86265 0.0565,1.6249 0.12548,1.6939 0.21399,0.21399 1.1361,0.13794 1.3312,-0.10979 z m 9.742,3.6868 c -1.4133,-0.74509 -2.1536,-1.9782 -2.1603,-3.5988 -0.007,-1.6129 0.70679,-2.9062 1.9721,-3.5748 0.5849,-0.30906 3.3969,-0.42161 3.831,-0.15333 0.11858,0.0733 0.21228,0.53055 0.20822,1.0162 l -0.007,0.88291 -0.26093,-0.59994 c -0.3105,-0.71392 -1.3782,-1.1199 -2.4275,-0.92306 -1.0473,0.19648 -1.5168,1.0106 -1.5976,2.7706 -0.0809,1.762 0.36274,2.9544 1.3236,3.5571 0.81722,0.51266 2.1466,0.41413 2.6404,-0.19571 l 0.3368,-0.41594 v 0.54786 c 0,0.30131 -0.10163,0.64948 -0.22586,0.7737 -0.3396,0.33961 -2.9416,0.27737 -3.6325,-0.0869 z m 4.7231,0.12951 c 0.3,-0.1213 0.71917,-1.0289 1.7547,-3.7994 0.74831,-2.002 1.4298,-3.7113 1.5145,-3.7983 0.0847,-0.087 0.505,0.75992 0.93409,1.8821 0.42909,1.12218 1.0825,2.8299 1.452,3.7948 0.47442,1.2389 0.7904,1.8022 1.0755,1.9173 0.28685,0.11575 0.0224,0.16622 -0.91382,0.17439 -1.315,0.0115 -1.3175,0.0105 -1.3356,-0.51366 -0.01,-0.28883 -0.13769,-0.77565 -0.2839,-1.0818 -0.23818,-0.49877 -0.36895,-0.56258 -1.2578,-0.61372 -0.97605,-0.0562 -0.99642,-0.0464 -1.2689,0.60565 -0.36738,0.87926 -0.34966,1.3811 0.0525,1.4862 0.18116,0.0473 -0.22115,0.0905 -0.89402,0.096 -0.8449,0.007 -1.1014,-0.0394 -0.82923,-0.14947 z m 3.6379,-2.9694 c -0.0283,-0.63825 -0.69105,-2.2215 -0.80762,-1.9292 -0.27076,0.67893 -0.68351,1.9434 -0.68351,2.094 0,0.0905 0.33879,0.16456 0.75286,0.16456 0.59709,0 0.74984,-0.0682 0.73827,-0.32938 z m -70.188995,-6.2581 c 0.66287,-0.83694 1.0418,-0.94872 1.2279,-0.36224 0.14663,0.46198 0.19899,0.41001 -0.80822,0.80217 -1.0912,0.42487 -1.0985,0.4172 -0.41967,-0.43993 z m 43.853995,0 c 0.66287,-0.83694 1.0418,-0.94872 1.2279,-0.36224 0.14662,0.46198 0.19899,0.41001 -0.80823,0.80217 -1.0912,0.42487 -1.0985,0.4172 -0.41967,-0.43993 z m -88.350995,-5.056 c -0.17025,-0.27548 0.10578,-0.36272 0.64278,-0.20317 0.2588,0.0769 0.37159,0.14825 0.25066,0.15857 -0.12093,0.0103 -0.34528,0.0669 -0.49855,0.1257 -0.15327,0.0588 -0.33097,0.0223 -0.39489,-0.0811 z m 1.3956,-0.20027 c 0,-0.30236 -1.1767,-0.79452 -1.3899,-0.58133 -0.32989,0.32989 -0.68276,0.20962 -0.87596,-0.29855 -0.12149,-0.31955 -0.28288,-0.45256 -0.46453,-0.38285 -0.1535,0.0589 -0.44782,-0.0751 -0.65614,-0.29868 -0.20778,-0.22302 -0.37778,-0.32207 -0.37778,-0.2201 0,0.15566 -0.52676,0.19884 -1.1965,0.0981 -0.08871,-0.0134 -0.10893,-0.16075 -0.04492,-0.32755 0.08023,-0.20906 0.03473,-0.27194 -0.14647,-0.20241 -0.30654,0.11762 -1.2471,-0.79468 -1.2471,-1.2096 0,-0.15571 -0.12421,-0.44751 -0.27603,-0.64845 -0.28917,-0.38274 -0.21628,-1.4746 0.12741,-1.9085 0.0983,-0.1241 0.22016,-0.58633 0.27081,-1.0272 0.05065,-0.44085 0.1471,-0.88984 0.21434,-0.99776 0.06724,-0.10792 0.19262,-1.0855 0.27863,-2.1725 0.1676,-2.118 0.25467,-3.0431 0.39861,-4.2348 0.26542,-2.1975 0.49669,-4.2752 0.59692,-5.3625 0.06194,-0.672 0.20255,-1.3302 0.31247,-1.4626 0.10991,-0.13243 0.21827,-0.55663 0.24079,-0.94265 0.02252,-0.38603 0.16706,-1.8453 0.32118,-3.2428 0.15412,-1.3975 0.28617,-2.7526 0.29344,-3.0114 0.0073,-0.2588 0.10986,-0.85167 0.22799,-1.3175 0.11812,-0.46583 0.24984,-1.2281 0.29271,-1.6939 0.29343,-3.1887 1.0384,-7.8335 1.2263,-7.6457 0.04714,0.0471 0.07452,-0.18253 0.06085,-0.5103 -0.03872,-0.92791 -0.06252,-0.99169 -0.25745,-0.69004 -0.13845,0.21424 -0.18314,0.1348 -0.18533,-0.32938 -0.0029,-0.62072 0.36247,-0.88744 0.38678,-0.28232 0.01131,0.28165 0.03667,0.27484 0.17499,-0.047 0.08897,-0.20704 0.16771,-0.54084 0.17499,-0.74178 0.01309,-0.36165 0.01044,-0.36165 -0.26311,0 -0.25896,0.34238 -0.27671,0.32097 -0.28232,-0.34045 -0.0049,-0.58233 0.05987,-0.70581 0.37044,-0.70581 0.36792,0 0.50895,-0.36938 0.24268,-0.63565 -0.22113,-0.22113 -0.07292,-7.7652 0.16396,-8.3462 0.11725,-0.28762 0.23344,-1.751 0.25818,-3.2520995 0.02475,-1.501 0.1302,-3.0456 0.23434,-3.4324 0.12749,-0.47353 0.57078,-1.0731 1.3568,-1.8351 1.1764,-1.1405 1.4633,-1.2897 1.8112,-0.9418 0.12783,0.12783 0.39708,0.0051 0.82306,-0.37524 0.3482,-0.31087 0.6763,-0.52199 0.72913,-0.46917 0.05283,0.05283 -7.7e-5,0.19218 -0.11757,0.30967 -0.15935,0.15935 -0.06053,0.29753 0.38898,0.54392 0.58689,0.3217 0.6134,0.31972 1.0172,-0.0756 0.92632,-0.90677 0.99403,-0.93743 1.353,-0.61258 0.1828,0.16543 0.43157,0.30079 0.55282,0.30079 0.12125,0 0.22045,0.0847 0.22045,0.18822 0,0.10352 0.10986,0.18821 0.24412,0.18821 0.13427,0 0.5664,0.33004 0.9603,0.73343 0.79697,0.81617 0.79944,0.87869 0.12324,3.125 -0.4278,1.4211 -0.82717,3.9786995 -0.6628,4.2446995 0.14734,0.2384 -0.26107,1.3076 -0.49947,1.3076 -0.09096,0 -0.16538,0.0897 -0.16538,0.19932 0,0.10963 0.0847,0.14698 0.18822,0.083 0.10352,-0.064 0.18821,-0.0266 0.18821,0.083 0,0.10963 -0.0847,0.19932 -0.18821,0.19932 -0.10352,0 -0.18822,0.16256 -0.18822,0.36123 0,0.19868 -0.12434,0.85507 -0.27632,1.4587 -0.15198,0.60359 -0.32194,1.5633 -0.3777,2.1326 -0.05576,0.56934 -0.15009,1.4301 -0.20962,1.9128 -0.05953,0.48269 -0.02467,1.0338 0.07746,1.2246 0.1288,0.24066 0.10555,0.57734 -0.07586,1.0986 -0.14386,0.41341 -0.29884,1.1476 -0.34439,1.6316 -0.04555,0.48401 -0.16326,1.0345 -0.26157,1.2234 -0.1551,0.29796 -0.34613,1.4368 -0.5154,3.0725 -0.02678,0.2588 -0.11308,0.76002 -0.19178,1.1138 -0.12051,0.54181 -0.0963,0.62533 0.1535,0.52947 0.17749,-0.0681 0.34283,0.007 0.41174,0.18625 0.09949,0.25927 0.16658,0.24486 0.49344,-0.10599 0.26724,-0.28684 0.60213,-0.40605 1.1407,-0.40605 0.49612,0 0.87156,-0.11928 1.0749,-0.3415 0.17187,-0.18782 0.65128,-0.45393 1.0653,-0.59136 0.41402,-0.13743 1.2187,-0.46657 1.788,-0.73141 1.2005,-0.55846 2.4725,-0.59712 3.4258,-0.10414 0.33732,0.17443 1.1655,0.8838 1.8404,1.5764 1.5514,1.592 3.0969,4.4438 3.2899,6.0708 0.07043,0.5936 0.2082,1.1288 0.30616,1.1894 0.09796,0.0605 0.12144,0.20177 0.05218,0.31384 -0.06926,0.11207 0.0275,0.31595 0.21502,0.45307 0.24628,0.18008 0.33738,0.48557 0.32809,1.1001 -0.0071,0.46796 0.05717,0.89411 0.14276,0.94701 0.08559,0.0529 0.07264,0.39671 -0.02878,0.76402 -0.10142,0.36731 -0.14658,0.8113 -0.10036,0.98665 0.05987,0.22713 0.09032,0.19702 0.10587,-0.10468 0.01201,-0.23292 0.10814,-0.42348 0.21363,-0.42348 0.11684,0 0.13847,0.20227 0.05532,0.51759 -0.07506,0.28467 -0.1282,0.87755 -0.11809,1.3175 0.01011,0.43995 -0.06631,0.79991 -0.16984,0.79991 -0.10748,0 -0.13686,0.20467 -0.06848,0.4771 0.06586,0.26241 -0.0079,0.853 -0.16385,1.3124 -0.15598,0.45943 -0.23918,0.95108 -0.18488,1.0926 0.05429,0.14148 -0.03218,0.36588 -0.19217,0.49866 -0.18918,0.15701 -0.29551,0.57883 -0.30412,1.2065 -0.0095,0.69317 -0.05684,0.85903 -0.16801,0.58866 -0.13269,-0.32269 -0.17244,-0.33342 -0.27845,-0.0751 -0.06802,0.16571 -0.10062,0.37745 -0.07245,0.47054 0.07976,0.26356 -0.61796,1.2138 -0.80594,1.0976 -0.0922,-0.057 -0.16763,0.0604 -0.16763,0.26089 0,0.20047 -0.12704,0.46993 -0.28232,0.5988 -0.15528,0.12886 -0.28232,0.33785 -0.28232,0.46441 0,0.12655 -0.16975,0.38372 -0.37722,0.57148 -0.20747,0.18776 -0.46487,0.66687 -0.57199,1.0647 -0.11436,0.42468 -0.54549,1.0842 -1.0443,1.5974 -0.46724,0.48076 -1.1453,1.235 -1.5067,1.6761 -0.36146,0.44111 -0.94464,0.93842 -1.296,1.1051 -0.35132,0.16671 -0.69752,0.49219 -0.76931,0.72329 -0.18012,0.57976 -2.2899,2.597 -3.1954,3.0552 -0.40914,0.20704 -0.85366,0.52337 -0.98783,0.70296 -0.13417,0.17959 -0.64235,0.55145 -1.1293,0.82637 -0.48695,0.27492 -1.2198,0.71205 -1.6287,0.97142 -0.40883,0.25936 -0.87466,0.48636 -1.0352,0.50444 -0.16052,0.0181 -0.4189,0.0812 -0.57418,0.1402 -0.15528,0.059 -0.7905,0.21079 -1.4116,0.33725 -0.62111,0.12645 -1.341,0.29542 -1.5998,0.37547 l -0.47054,0.14556 0.47054,0.19776 c 0.46374,0.19489 0.46169,0.19792 -0.14116,0.20968 -0.33643,0.007 -0.6117,-0.0666 -0.6117,-0.1625 z m 6.9769,-7.8916 c 0.68625,-0.37912 1.1464,-0.81803 1.5622,-1.49 0.32413,-0.5239 0.82225,-1.1352 1.1069,-1.3584 0.28465,-0.2232 0.52046,-0.50556 0.52398,-0.62744 0.0035,-0.12189 0.17003,-0.5604 0.37004,-0.97447 0.20001,-0.41407 0.36653,-0.8473 0.37004,-0.96274 0.0035,-0.11544 0.18156,-0.43258 0.39565,-0.70476 0.41502,-0.52761 0.72495,-1.3652 0.84555,-2.285 0.04072,-0.31055 0.21365,-1.018 0.3843,-1.5722 0.26932,-0.87458 0.28164,-1.262 0.09331,-2.9356 -0.11933,-1.0605 -0.16051,-2.0752 -0.09152,-2.255 0.11914,-0.31048 -0.04833,-0.54827 -1.1033,-1.5666 -0.18116,-0.17487 -0.32938,-0.53082 -0.32938,-0.791 0,-0.82031 -0.93052,-2.4142 -1.5318,-2.6238 -0.29622,-0.10327 -0.53859,-0.26085 -0.53859,-0.35018 0,-0.26846 -1.8288,-0.65164 -2.4543,-0.51425 -0.64136,0.14087 -1.0307,0.33194 -2.1597,1.0598 -0.95845,0.61794 -1.1436,0.85525 -1.3009,1.6676 -0.42831,2.2114 -1.0411,9.2211 -1.0877,12.442 l -0.03975,2.7486 1.244,1.4915 c 1.1351,1.3609 1.6,1.7499 2.4105,2.0169 0.15528,0.0511 0.29927,0.0997 0.31999,0.10787 0.02072,0.008 0.47544,-0.22699 1.0105,-0.52258 z m 0.68024,-44.669 c -0.06008,-0.15014 -0.10468,-0.10554 -0.11371,0.11372 -0.0082,0.19841 0.03631,0.30957 0.09885,0.24703 0.06254,-0.0625 0.06923,-0.22488 0.01486,-0.36075 z m 71.650995,52.082 c -0.0614,-0.15986 -0.64807,-0.23042 -1.9159,-0.23042 -1.6799,0 -3.236,-0.30627 -3.236,-0.6369 0,-0.16776 -1.1648,-0.65095 -1.4283,-0.59253 -0.11271,0.025 -0.35875,-0.12454 -0.54676,-0.33228 -0.188,-0.20774 -0.28962,-0.37772 -0.22582,-0.37772 0.15893,0 -1.368795,-1.476 -1.892795,-1.8286 -0.23292,-0.15676 -0.42349,-0.36808 -0.42349,-0.46959 0,-0.10152 -0.17287,-0.42734 -0.38415,-0.72407 -0.89393,-1.2554 -1.8256,-4.1154 -1.983,-6.0874 -0.0405,-0.5073 -0.11435,-0.96309 -0.16413,-1.0129 -0.0498,-0.0498 -0.0135,-0.23439 0.0806,-0.41025 0.11369,-0.21243 0.078,-0.49926 -0.1064,-0.85466 -0.20754,-0.40003 -0.22182,-0.56934 -0.0567,-0.67143 0.12148,-0.0751 0.17433,-0.31448 0.11745,-0.53201 -0.0569,-0.21753 -0.0338,-0.43853 0.0513,-0.49111 0.0851,-0.0526 0.15854,-0.62437 0.16325,-1.2706 0.009,-1.2172 0.08,-1.8344 0.39589,-3.4336 0.42514,-2.1524 0.91784,-3.8934 1.1873,-4.1952 0.15802,-0.17704 0.58532,-0.95712 0.94955,-1.7335 0.36423,-0.77639 0.8379,-1.559 1.0526,-1.7391 0.2147,-0.18015 0.390345,-0.44228 0.390345,-0.58253 0,-0.14025 0.1694,-0.40829 0.37643,-0.59566 0.20704,-0.18736 0.37643,-0.41987 0.37643,-0.51668 0,-0.32985 1.034,-1.6249 1.3686,-1.714 0.18337,-0.0489 0.42494,-0.35145 0.53684,-0.67243 0.14939,-0.42854 0.67855,-0.90802 1.9916,-1.8046 0.9835,-0.67155 1.9319,-1.221 2.1076,-1.221 0.17566,0 0.41389,-0.0945 0.5294,-0.21001 0.24073,-0.24074 0.54364,-0.42345 1.9565,-1.1802 0.55785,-0.29878 1.2008,-0.74344 1.4288,-0.98813 0.97528,-1.0468 3.7999,-0.2633 5.0019,1.3875 0.35913,0.49321 0.70926,1.0795 0.77806,1.3028 0.0688,0.22335 0.25566,0.45619 0.41524,0.51743 0.20609,0.0791 0.25781,0.26133 0.17852,0.62909 -0.0614,0.28476 -0.0317,0.793 0.066,1.1294 0.12235,0.42139 0.11454,0.61169 -0.0251,0.61169 -0.13992,0 -0.15744,0.45178 -0.0566,1.4587 0.19344,1.931 0.15496,2.6966 -0.16123,3.2082 -0.0806,0.13048 -0.17667,0.46778 -0.2134,0.74954 -0.13493,1.035 -1.6731,3.795 -2.119,3.8022 -0.13107,0.002 -0.87093,0.6179 -1.6442,1.3684 -1.4246,1.3828 -2.605,2.3997 -2.7852,2.3997 -0.0544,0 -0.54902,0.29644 -1.0992,0.65875 -0.55014,0.36231 -1.1064,0.65875 -1.2362,0.65875 -0.39841,0 -2.2897,1.2976 -2.5208,1.7295 -0.1199,0.22402 -0.23168,0.92171 -0.24841,1.5504 -0.0236,0.88658 0.0621,1.2909 0.38179,1.8019 0.22672,0.36231 0.52666,0.98961 0.66653,1.394 0.13987,0.40439 0.40253,0.77423 0.58368,0.82186 0.18116,0.0476 0.32996,0.18261 0.33066,0.29993 7.1e-4,0.11733 0.29715,0.4148 0.65875,0.66106 0.36161,0.24626 0.65747,0.51807 0.65747,0.60401 0,0.25701 2.3565,1.2675 3.3968,1.4566 0.93561,0.17006 2.5763,-0.0892 3.3724,-0.5328 0.19627,-0.10937 0.37241,0.005 0.61074,0.39703 l 0.33492,0.55073 0.75382,-0.47587 c 0.4146,-0.26172 0.75381,-0.39788 0.75381,-0.30257 0,0.0953 -0.37679,0.41167 -0.83731,0.70302 -0.5166,0.32682 -0.755,0.58061 -0.6224,0.66256 0.3801,0.23491 -0.15381,1.1008 -0.67876,1.1008 -0.28766,0 -0.48698,0.13139 -0.54689,0.36049 -0.0519,0.19826 -0.29331,0.38883 -0.53658,0.42348 -0.25027,0.0356 -0.60704,0.32544 -0.8217,0.66744 -0.20867,0.33245 -0.45864,0.60771 -0.5555,0.6117 -0.0968,0.004 -0.57788,0.34604 -1.0689,0.76011 -0.49107,0.41407 -0.97315,0.75286 -1.0713,0.75286 -0.0982,0 -0.28389,0.12704 -0.41276,0.28232 -0.12887,0.15528 -0.47803,0.28232 -0.77591,0.28232 -0.40494,0 -0.54159,0.0894 -0.54159,0.35449 0,0.41421 -0.91625,0.68207 -1.0592,0.30964 z m 0.72978,-0.41235 c -0.1294,-0.0522 -0.34114,-0.0522 -0.47054,0 -0.12939,0.0522 -0.0235,0.0949 0.23527,0.0949 0.2588,0 0.36467,-0.0427 0.23527,-0.0949 z m -2.8703,-19.899 c 0.46583,-0.18105 1.1596,-0.57753 1.5417,-0.88106 0.38213,-0.30354 0.78786,-0.55189 0.90164,-0.55189 0.31417,0 1.3209,-0.7939 1.3209,-1.0416 0,-0.11991 0.12722,-0.47303 0.28271,-0.78471 0.251,-0.50315 0.25129,-0.74385 0.003,-2.1463 -0.37369,-2.1076 -0.57794,-2.775 -1.0837,-3.5407 -0.23379,-0.35399 -0.5297,-0.81982 -0.65757,-1.0352 -0.12787,-0.21537 -0.23632,-0.30687 -0.24099,-0.20336 -0.005,0.10352 -0.0985,0.0335 -0.20847,-0.15568 -0.18172,-0.31251 -0.22843,-0.31707 -0.51186,-0.05 -0.17155,0.16166 -0.53703,0.48581 -0.81218,0.72033 -0.76813,0.65468 -2.1767,5.2642 -2.2295,7.2962 -0.0396,1.5228 0.42039,3.336 0.73002,2.8774 0.0647,-0.0958 0.49877,-0.32235 0.9646,-0.50339 z m -52.612995,19.881 c -1.7735,-1.0298 -2.0575,-1.5922 -1.7814,-3.5277 0.10336,-0.72463 0.23602,-2.1221 0.2948,-3.1055 0.05878,-0.98342 0.18264,-2.0421 0.27524,-2.3527 0.16356,-0.54853 0.67077,-5.1512 0.84003,-7.6227 0.04608,-0.67287 0.17126,-1.5193 0.27818,-1.8809 0.10692,-0.36163 0.19439,-1.1768 0.19439,-1.8114 0,-0.63466 0.13084,-1.5245 0.29075,-1.9775 0.18279,-0.51778 0.28401,-1.4176 0.27261,-2.4234 -0.01,-0.8799 0.03846,-1.7904 0.10763,-2.0233 0.07764,-0.26142 0.04535,-0.42348 -0.08439,-0.42348 -0.11559,0 -0.21017,0.21174 -0.21017,0.47053 0,0.2588 -0.0847,0.47054 -0.18822,0.47054 -0.25488,0 -0.24092,-1.0804 0.01506,-1.1657 0.12151,-0.0405 0.20895,-0.67808 0.21738,-1.585 0.01156,-1.2431 -0.06263,-1.6538 -0.41061,-2.273 -0.51948,-0.92428 -0.45332,-1.3875 0.24603,-1.7227 0.38772,-0.18583 0.47722,-0.31241 0.32707,-0.46256 -0.29728,-0.29728 -0.25454,-0.56649 0.07016,-0.44189 0.15228,0.0584 0.3852,0.004 0.51759,-0.12135 0.66396,-0.62779 1.9849,-1.3291 2.4399,-1.2954 0.27787,0.0206 0.55813,-0.0482 0.6228,-0.15285 0.06467,-0.10464 0.30316,-0.19331 0.52996,-0.19703 0.47784,-0.008 1.3014,-0.65094 1.6182,-1.2637 0.17811,-0.34443 0.37784,-0.42348 1.0699,-0.42348 0.83231,0 0.85987,0.0196 1.2596,0.89402 0.34575,0.75636 0.40757,1.2273 0.40154,3.0585 -0.0048,1.4669 -0.10946,2.5069 -0.32467,3.227 -0.17465,0.58438 -0.30397,1.262 -0.28737,1.5057 0.0166,0.24377 -0.10324,0.82661 -0.2663,1.2952 -0.39194,1.1264 -0.8731,3.3486 -1.0788,4.9827 -0.09124,0.72462 -0.25047,1.6986 -0.35386,2.1645 -0.10339,0.4659 -0.2311,2.7312 -0.28381,5.0342 -0.05271,2.303 -0.13721,4.2542 -0.18778,4.336 -0.09597,0.15528 0.3439,3.3762 0.54955,4.0242 0.07007,0.22078 0.22622,0.33096 0.38352,0.2706 0.17291,-0.0664 0.26532,0.0272 0.26532,0.26871 0,0.20378 0.0847,0.37052 0.18821,0.37052 0.10352,0 0.18822,-0.0847 0.18822,-0.18822 0,-0.29865 0.32456,-0.21842 0.45118,0.11153 0.0774,0.20171 -0.01235,0.33304 -0.27444,0.40158 -0.31132,0.0814 -0.37858,0.22809 -0.33525,0.73107 0.03874,0.44968 -0.05174,0.70931 -0.31712,0.90993 -0.35644,0.26945 -0.31399,0.32708 0.272,0.3692 0.30771,0.0221 0.52329,0.48812 0.22581,0.48812 -0.24082,0 -1.3397,1.0515 -1.3397,1.282 0,0.091 -0.17139,0.3205 -0.38088,0.51008 -0.29199,0.26424 -0.43255,0.29301 -0.60229,0.12327 -0.30532,-0.30532 -0.80656,-0.27724 -1.0872,0.0609 -0.12887,0.15527 -0.35266,0.28232 -0.49732,0.28232 -0.14466,0 -0.60583,0.2164 -1.0248,0.4809 -0.99438,0.62772 -2.3269,0.76445 -3.0962,0.3177 z m 21.131,-0.21593 c -0.0559,-0.21396 -0.57683,-0.58473 -1.2924,-0.91995 -1.1914,-0.55815 -2.0456,-1.2063 -2.0456,-1.5522 0,-0.0995 -0.12055,-0.18088 -0.26788,-0.18088 -0.32117,0 -1.426,-0.89765 -1.426,-1.1586 0,-0.10122 -0.22179,-0.47483 -0.49288,-0.83023 -0.27108,-0.35541 -0.4193,-0.64889 -0.32938,-0.65218 0.08993,-0.003 0.03646,-0.10916 -0.11882,-0.23527 -0.15528,-0.1261 -0.44388,-0.54689 -0.64134,-0.93508 -0.19746,-0.3882 -0.43537,-0.70581 -0.5287,-0.70581 -0.09333,0 -0.12202,-0.0771 -0.06377,-0.17136 0.05825,-0.0943 -0.12172,-0.62361 -0.39993,-1.1763 -0.28113,-0.55854 -0.54262,-1.4439 -0.58864,-1.9931 -0.04554,-0.54347 -0.15701,-0.98813 -0.24771,-0.98813 -0.22163,0 -0.20332,-3.9055 0.02603,-5.5523 0.28992,-2.0818 1.1257,-4.7121 1.7121,-5.3882 0.19555,-0.22547 0.35555,-0.56347 0.35555,-0.75109 0,-0.18763 0.23292,-0.59361 0.51759,-0.90219 0.28467,-0.30857 0.81403,-1.0002 1.1763,-1.537 0.85657,-1.2691 3.3252,-3.9947 3.77,-4.1624 0.19039,-0.0718 0.44363,-0.31268 0.56277,-0.53529 0.11914,-0.22261 0.57592,-0.56369 1.0151,-0.75794 0.43915,-0.19426 1.0256,-0.5319 1.3033,-0.7503 0.27766,-0.21841 0.98809,-0.65499 1.5787,-0.97017 0.59065,-0.31519 1.292,-0.80651 1.5585,-1.0918 0.3275,-0.35058 0.83574,-0.59733 1.5678,-0.76116 0.59577,-0.13333 1.1223,-0.30566 1.1701,-0.38296 0.14775,-0.23907 -0.29196,-1.1819 -0.79922,-1.7137 -0.26797,-0.28092 -0.43588,-0.62918 -0.37714,-0.78223 0.0582,-0.15173 -0.0578,-0.424 -0.25788,-0.60505 -0.20005,-0.18105 -0.36373,-0.45277 -0.36373,-0.60382 0,-0.15106 -0.42349,-0.76348 -0.94108,-1.3609 -0.51759,-0.59742 -0.94107,-1.1989 -0.94107,-1.3364 0,-0.1375 -0.16575,-0.42252 -0.36834,-0.63319 -0.51337,-0.53386 -1.5243,-1.7581 -2.1301,-2.5798 -0.28024,-0.38005 -0.9755,-1.1847 -1.545,-1.788 -0.56952,-0.60337 -1.0857,-1.2501 -1.1471,-1.4372 -0.0614,-0.18709 -0.31613,-0.4179 -0.56606,-0.51293 -0.24994,-0.095 -0.45713,-0.32309 -0.46042,-0.50681 -0.0033,-0.18372 -0.1391,-0.50343 -0.30179,-0.71046 -0.28777,-0.36621 -0.29205,-0.3639 -0.1574,0.0853 0.128,0.42704 0.11531,0.43866 -0.16875,0.1546 -0.16893,-0.16893 -0.30715,-0.3979 -0.30715,-0.50881 0,-0.11091 -0.0847,-0.20166 -0.18822,-0.20166 -0.10352,0 -0.18821,-0.11736 -0.18821,-0.2608 0,-0.14345 -0.12271,-0.49733 -0.27269,-0.78642 -0.14998,-0.28908 -0.22759,-0.59858 -0.17246,-0.68778 0.13523,-0.21881 -0.33026,-2.7738995 -0.52757,-2.8957995 -0.08611,-0.05322 -0.15656,-0.43891 -0.15656,-0.8571 0,-0.60636 0.11728,-0.8699 0.57911,-1.3013 0.90907,-0.8492 2.8221,-2.2451 3.0769,-2.2451 0.12698,0 0.4362,-0.22012 0.68716,-0.48917 0.25096,-0.26904 0.85024,-0.68972 1.3317,-0.93483 0.48146,-0.24511 1.032,-0.63904 1.2234,-0.87539 0.50892,-0.62854 1.6842,-1.46490004 2.0586,-1.46490004 0.1783,0 0.60178,-0.21174 0.94108,-0.47054 0.74566,-0.56875 1.0184,-0.59396 1.0184,-0.09411 0,0.20704 -0.0904,0.37643 -0.2009,0.37643 -0.11752,0 -0.14957,0.16172 -0.0772,0.38964004 0.0924,0.29112 0.0289,0.41441 -0.25108,0.48763 -0.35805,0.09363 -0.3609,0.12232 -0.0639,0.64435 0.30795,0.54132 0.84008,0.7223 1.063,0.36154 0.0636,-0.10296 0.29017,-0.28058 0.50342,-0.39471 0.30709,-0.16435 0.36851,-0.15478 0.29536,0.04604 -0.0508,0.13945 -0.18764,0.23237 -0.3041,0.20649 -0.11645,-0.02588 -0.21174,0.1175 -0.21174,0.31862 0,0.20112 -0.17832,0.6679 -0.39626,1.0373 -0.33482,0.56748 -0.38562,0.90598 -0.32762,2.1832 0.0382,0.84102 0.16257,1.5707 0.28038,1.6448 0.11646,0.07327 0.24384,0.30245 0.28308,0.5093 0.0428,0.22567 0.22089,0.37623 0.44526,0.37643 0.24059,2.18e-4 0.39472,0.14646 0.43227,0.41015 0.0321,0.2254 0.18031,0.51103 0.32937,0.63474 0.14906,0.12371 0.27102,0.40668 0.27102,0.6288195 0,0.22214 0.31762,0.80161 0.70581,1.2877 0.38819,0.48611 1.1293,1.4438 1.6469,2.1282 0.51759,0.68438 1.1971,1.4725 1.5099,1.7514 0.73789,0.65772 2.0036,2.4781 2.8338,4.0757 0.21517,0.41407 0.64982,1.2294 0.96588,1.8119 0.31605,0.58248 0.68078,1.3871 0.81049,1.788 0.12972,0.40094 0.43616,1.0752 0.681,1.4984 0.53253,0.92042 0.56752,1.242 0.11628,1.0688 -0.30446,-0.11683 -0.303,-0.0867 0.0196,0.40563 0.28149,0.4296 0.30852,0.61949 0.14065,0.98793 -0.26677,0.58551 -0.2625,0.6266 0.0652,0.6266 0.15013,0 0.35618,-0.14822 0.45788,-0.32937 0.1761,-0.3137 0.19095,-0.3137 0.31181,0 0.0698,0.18115 0.074,0.46715 0.009,0.63555 -0.0646,0.1684 -0.024,0.41877 0.0902,0.5564 0.21311,0.25678 0.0935,0.64314 -0.19919,0.64314 -0.0902,0 -0.19735,-0.19057 -0.23809,-0.42349 -0.0701,-0.40093 -0.0827,-0.40404 -0.23517,-0.0583 -0.10609,0.24049 -0.0853,0.39042 0.061,0.43917 0.12214,0.0407 0.22508,0.25753 0.22875,0.48182 0.007,0.4428 0.54035,1.5077 0.5513,1.1012 0.004,-0.1362 -0.0835,-0.41616 -0.19375,-0.62213 -0.11023,-0.20597 -0.16677,-0.47544 -0.12564,-0.59882 0.0411,-0.12338 0.18795,-0.0129 0.32628,0.24561 0.16557,0.30937 0.2653,1.306 0.29188,2.9168 0.0222,1.3458 0.0555,2.5739 0.074,2.7292 0.0185,0.1553 -0.0299,0.62111 -0.10751,1.0352 -0.13911,0.74192 -0.14752,1.2741 -0.0547,3.4614 0.0259,0.60978 -0.0621,1.3721 -0.19544,1.6941 -0.18516,0.44703 -0.1907,0.64781 -0.0234,0.84934 0.17251,0.20787 0.1204,0.37034 -0.24539,0.76503 -0.39643,0.42775 -0.45288,0.63999 -0.38561,1.4496 0.0595,0.71592 -0.007,1.0706 -0.27294,1.4463 -0.19347,0.27379 -0.41485,0.79425 -0.49194,1.1566 -0.15992,0.7515 -0.58757,1.6489 -0.96622,2.0276 -0.30558,0.30558 -0.34167,0.79567 -0.0586,0.79567 0.11229,0 0.13521,0.10273 0.0525,0.23527 -0.0808,0.12939 -0.17102,0.39071 -0.20059,0.5807 -0.0495,0.31768 -0.87997,1.6926 -2.3749,3.9316 -0.32652,0.48904 -0.70104,0.89135 -0.83227,0.89402 -0.42912,0.009 -1.5845,1.3563 -1.4859,1.7331 0.0643,0.24598 -0.0696,0.43295 -0.4518,0.63058 -0.29878,0.1545 -0.65126,0.48653 -0.78328,0.73784 -0.35227,0.67057 -3.3306,3.3026 -3.7371,3.3026 -0.19146,0 -0.43481,0.16202 -0.54079,0.36004 -0.10598,0.19803 -0.55361,0.48374 -0.99475,0.63493 -1.673,0.57338 -2.2447,0.73064 -2.3335,0.64182 -0.0504,-0.0504 -0.57344,0.0235 -1.1622,0.16423 -1.4358,0.34325 -1.6691,0.33157 -1.7791,-0.0891 z m 8.0237,-7.9049 c 0.14467,-0.16524 0.32645,-0.51218 0.40396,-0.77097 0.0775,-0.2588 0.29267,-0.80933 0.47813,-1.2234 0.30809,-0.68784 0.66093,-1.9948 1.1433,-4.2348 0.15073,-0.70001 0.52036,-3.8778 0.81001,-6.9639 0.081,-0.86337 -0.21144,-3.1851 -0.43551,-3.4571 -0.14655,-0.17792 -0.34441,-1.3926 -0.41792,-2.5657 -0.0231,-0.36818 -0.65747,-2.1298 -0.96437,-2.6779 -0.58228,-1.0399 -0.64431,-1.0657 -1.5214,-0.63468 -0.44229,0.21738 -1.0547,0.57611 -1.361,0.79718 -0.30623,0.22108 -0.87353,0.53401 -1.2607,0.69541 -1.5411,0.64248 -2.2391,1.4563 -3.3368,3.8903 -0.11671,0.2588 -0.41901,0.85167 -0.67178,1.3175 -0.47764,0.88026 -0.6,1.4241 -0.27525,1.2234 0.36682,-0.22671 0.18122,0.3304 -0.301,0.90349 -0.38214,0.45414 -0.46724,0.71681 -0.38883,1.2001 0.0552,0.34026 0.0213,0.66756 -0.0754,0.72732 -0.0967,0.0598 -0.18828,-0.0869 -0.20349,-0.32592 -0.0501,-0.78607 -0.30746,1.7922 -0.32833,3.2886 -0.0191,1.3653 0.44668,3.3986 0.91472,3.9936 0.0814,0.10351 0.21286,0.39995 0.29206,0.65875 0.2885,0.94276 1.7838,2.4079 3.5384,3.467 1.5489,0.93497 1.8299,1.0404 2.713,1.0176 0.64096,-0.0165 1.077,-0.13035 1.2482,-0.32582 z m -5.1507,-19.969 c 0,-0.10352 -0.0374,-0.18822 -0.083,-0.18822 -0.0456,0 -0.13534,0.0847 -0.19932,0.18822 -0.064,0.10351 -0.0266,0.18821 0.083,0.18821 0.10963,0 0.19932,-0.0847 0.19932,-0.18821 z m -5.7838,-23.203 c -0.17462,-0.38525 -0.38453,-0.70045 -0.46648,-0.70045 -0.22557,0 -0.17961,0.24897 0.12668,0.68626 0.15162,0.21647 0.22784,0.44142 0.16937,0.49989 -0.05847,0.0585 -0.04592,0.20402 0.02789,0.32345 0.31572,0.51085 0.43471,-0.16457 0.14255,-0.80915 z m -9.6376,46.838 c -0.28477,-0.34313 0.01,-0.52361 0.31532,-0.19309 0.12837,0.13894 0.15914,0.29851 0.06838,0.3546 -0.09076,0.0561 -0.26342,-0.0166 -0.3837,-0.16151 z m 92.537995,-0.78715 c -0.0755,-0.0755 -0.13187,-0.35604 -0.12531,-0.62346 l 0.0119,-0.48622 0.18166,0.45441 c 0.19577,0.48969 0.15522,0.87877 -0.0683,0.65527 z m -62.894995,-9.3522 c 0.0707,-0.18562 0.17592,-0.29008 0.23387,-0.23213 0.058,0.0579 1.2e-4,0.20982 -0.12851,0.33749 -0.18588,0.1845 -0.2075,0.16289 -0.10536,-0.10536 z m 60.838995,-1.0136 c -0.17542,-0.0462 -0.27582,-0.19644 -0.22311,-0.3338 0.12229,-0.31868 0.82437,-0.14736 0.82437,0.20116 0,0.26685 -0.0501,0.27791 -0.60126,0.13264 z m -58.178995,-10.486 c -0.077,-0.19597 -0.0957,-0.40065 -0.0415,-0.45485 0.17166,-0.17166 0.32271,0.10965 0.25078,0.46706 -0.0659,0.32755 -0.076,0.32697 -0.20929,-0.0122 z m 23.138995,-3.408 c 0.0596,-0.15528 0.14162,-0.28232 0.1823,-0.28232 0.0407,0 0.074,0.12704 0.074,0.28232 0,0.15527 -0.082,0.28232 -0.1823,0.28232 -0.10027,0 -0.13356,-0.12705 -0.074,-0.28232 z m -62.512995,-5.3641 c -0.06398,-0.10352 0.01572,-0.18822 0.17711,-0.18822 0.16139,0 0.29343,0.0847 0.29343,0.18822 0,0.10351 -0.0797,0.18821 -0.17711,0.18821 -0.09741,0 -0.22945,-0.0847 -0.29343,-0.18821 z m -49.406,-11.858 c 0,-0.10352 0.13204,-0.18822 0.29343,-0.18822 0.16139,0 0.24108,0.0847 0.17711,0.18822 -0.06398,0.10351 -0.19602,0.18821 -0.29343,0.18821 -0.09741,0 -0.17711,-0.0847 -0.17711,-0.18821 z m 75.25,-15.3739995 c 0.13587,-0.05437 0.2982,-0.04768 0.36074,0.01486 0.0626,0.06254 -0.0486,0.10703 -0.24703,0.09885 -0.21926,-0.009 -0.26385,-0.05363 -0.11371,-0.11371 z"
     fill="#7e2209"
     id="path1" /></svg>
